<?xml version="1.0" encoding="utf-8"?>
<!-- Generator: Adobe Illustrator 24.3.0, SVG Export Plug-In . SVG Version: 6.00 Build 0)  -->
<svg version="1.1" id="Layer_1" xmlns="http://www.w3.org/2000/svg" xmlns:xlink="http://www.w3.org/1999/xlink" x="0px" y="0px"
	 viewBox="0 0 1225.9 947.3" style="enable-background:new 0 0 1225.9 947.3;" xml:space="preserve">
<style type="text/css">
	.st0{fill:#18BA60;}
</style>
<path class="st0" d="M0,282.1c22.8-0.5,45.7-1.3,68.5-1.3c283.3-0.1,566.6-0.2,850,0.2c26.4,0,52.9,3.7,81.8,5.8
	c7.5-35.1,2.1-71.3-25.3-100.8c-39-42.1-85.3-69.8-145.6-70.1c-96.4-0.4-192.8-2.5-289.2-3.8c-7.7-0.1-15.5,0.9-25.5,1.6
	c-2.3,38.5-4.5,75.7-6.7,114.3c-36.3,0-70.5,0-106.2,0c0-44.4-0.1-86.7,0-128.9C402.1-0.1,426.2-1.6,507.8,0.4
	C624,3.2,740.3,4,856.6,6c162.4,2.8,287.9,164.7,249.6,322.1c-4,16.4-2.1,26.6,11.8,38.2c174.4,146.1,111.9,419.7-8,517
	c-42.9,34.8-89.5,58.8-145.9,59.7c-179.9,2.8-359.8,5.6-539.7,8.3c-2.9,0-5.8-0.9-11.3-1.9c0-34.7,0-69.7,0-111.4
	c54.9,0,109.3,0.7,163.6-0.1c125.2-1.9,250.4-5,375.7-6.7c41.8-0.6,77.1-16.4,101.3-48.3c56.6-74.7,76.7-159.4,47.9-249.8
	c-10-31.4-35-58-51-83.5c-48.2,32.7-89.2,62-132,88.5c-13.6,8.4-31.8,13.2-47.9,13.2c-286.3,0.7-572.6,0.5-858.9,0.4
	c-4,0-7.9-0.8-11.9-1.2c0-35.8,0-71.6,0-107.4c13.9-0.5,27.8-1.3,41.7-1.3c265.4-0.1,530.8-0.4,796.2,0.3
	c40.5,0.1,65.9-23.5,91.6-51.3c-10.6,0-21.3,0-31.9,0c-285.3,0-570.6,0-855.9-0.1c-13.9,0-27.8-0.9-41.7-1.3
	C0,353.7,0,317.9,0,282.1z"/>
</svg>
